<?xml version="1.0" encoding="utf-8"?>
<!-- Generator: Adobe Illustrator 22.1.0, SVG Export Plug-In . SVG Version: 6.00 Build 0)  -->
<svg version="1.1" id="Слой_1" xmlns="http://www.w3.org/2000/svg" xmlns:xlink="http://www.w3.org/1999/xlink" x="0px" y="0px"
	 viewBox="0 0 114.2 42.6" style="enable-background:new 0 0 114.2 42.6;" xml:space="preserve">
<style type="text/css">
	.st0{fill:url(#SVGID_1_);}
</style>
<g>
	<g>
		<linearGradient id="SVGID_1_" gradientUnits="userSpaceOnUse" x1="10.6666" y1="21.9683" x2="100.9302" y2="21.9683">
			<stop  offset="0" style="stop-color:#C64693"/>
			<stop  offset="1" style="stop-color:#2581C4;stop-opacity:0"/>
		</linearGradient>
		<path class="st0" d="M9.6,27.7c7.6,3.4,15.6,3.4,23.1-0.3c8.8-4.4,19.7-16.2,29.8-8.3c6.6,5.1,10.4,11.4,19.2,13
			c7.4,1.3,14.7-0.7,20.6-5.3c2.5-2-1-5.5-3.5-3.5C92.4,28.3,83,29,76,24.7c-6.2-3.9-9.5-11.2-17.2-12.9c-7.3-1.6-14.3,2.2-20.2,6.1
			c-8.3,5.5-16.5,10-26.5,5.5C9.2,22.1,6.7,26.4,9.6,27.7L9.6,27.7z"/>
	</g>
</g>
</svg>
